<svg data-v-423bf9ae="" xmlns="http://www.w3.org/2000/svg" viewBox="0 0 237.15396286172606 60" class="font"><!----><!----><!----><g data-v-423bf9ae="" id="f9c7ef89-dc54-4607-8e5d-224035f459be" fill="black" transform="matrix(4.665629984589186,0,0,4.665629984589186,-1.2597195256247744,-17.262830450198827)"><path d="M1.61 8.48C1.61 5.89 3.44 4.34 5.36 4.34C6.65 4.34 7.64 4.98 8.22 5.71C8.47 6.03 8.53 6.26 8.58 6.64C8.65 7.20 8.62 7.29 8.99 7.29C9.23 7.29 9.27 7.15 9.27 7.06C9.27 6.92 8.89 4.10 8.89 4.09C8.88 4.00 8.85 3.92 8.71 3.92C8.68 3.92 8.60 3.93 8.55 3.93C8.29 4.00 8.39 4.44 8.15 4.44C7.97 4.44 7.10 3.70 5.40 3.70L5.39 3.70C4.09 3.70 2.77 4.21 1.82 5.12C0.91 6.01 0.27 7.34 0.27 8.75C0.27 10.08 0.83 11.41 1.78 12.33C2.72 13.24 4.02 13.78 5.32 13.78C6.10 13.78 7.01 13.59 7.91 13.08C8.20 12.89 8.23 12.78 8.57 12.78L8.96 12.78L8.97 12.78C9.04 12.78 9.23 12.77 9.28 12.56C9.32 12.46 9.63 10.28 9.63 10.28C9.63 10.16 9.51 10.12 9.41 10.12C9.24 10.12 9.21 10.26 9.20 10.30C8.68 11.98 7.15 13.06 5.54 13.06C3.36 13.06 1.61 11.06 1.61 8.48ZM14.83 12.98C14.84 12.98 14.87 12.98 14.87 13.03L14.87 13.36C14.87 13.50 14.90 13.64 15.06 13.64C15.12 13.64 15.18 13.61 15.22 13.58C16.42 12.92 16.62 13.24 16.62 12.82C16.62 12.74 16.60 12.70 16.51 12.66C15.89 12.36 15.81 12.40 15.81 12.24L15.81 7.85C15.81 7.71 15.79 7.57 15.60 7.57C15.41 7.57 15.25 7.59 13.87 7.63C13.76 7.64 13.68 7.69 13.68 7.87C13.68 8.01 13.75 8.06 13.89 8.09C14.60 8.22 14.81 8.20 14.81 8.60L14.81 12.04C14.81 12.21 14.78 12.22 14.57 12.46C14.32 12.71 13.92 12.96 13.38 12.96C12.64 12.96 12.12 12.46 11.90 12.03C11.65 11.52 11.65 11.00 11.65 10.58L11.65 7.71C11.65 7.62 11.62 7.55 11.51 7.55C11.37 7.55 11.21 7.56 10.05 7.63C9.91 7.64 9.90 7.73 9.90 7.83L9.90 7.87C9.90 8.11 10.08 8.05 10.33 8.16C10.71 8.30 10.71 8.43 10.71 8.55C10.71 8.78 10.70 10.36 10.70 10.81C10.70 11.10 10.71 11.38 10.74 11.66C10.91 12.95 11.75 13.69 12.88 13.69C14.04 13.69 14.76 12.98 14.83 12.98ZM18.90 8.16C18.87 8.16 18.86 8.13 18.86 8.09L18.86 7.53C18.86 7.41 18.84 7.25 18.69 7.25C18.65 7.25 18.61 7.28 18.56 7.29C17.11 8.01 17.09 7.98 17.09 8.05C17.11 8.11 17.14 8.13 17.15 8.15C17.81 8.62 17.92 8.61 17.92 8.89L17.92 12.60C17.92 12.81 17.86 12.89 17.67 12.94C17.29 13.03 17.04 12.95 17.04 13.29C17.04 13.43 17.12 13.52 17.26 13.52C17.30 13.52 17.91 13.44 18.69 13.44C19.45 13.44 20.06 13.52 20.10 13.52C20.29 13.52 20.30 13.36 20.30 13.24C20.30 12.92 20.12 12.98 19.28 12.91C18.94 12.88 18.93 12.64 18.93 12.49L18.93 12.43L18.93 9.07C18.93 8.97 18.93 8.90 18.98 8.82C19.07 8.69 19.63 8.25 20.08 8.25C20.54 8.25 20.55 8.60 20.90 8.60C21.14 8.60 21.32 8.41 21.48 8.32C21.59 8.22 21.84 8.06 21.85 7.83L21.85 7.81C21.85 7.42 21.21 7.20 20.76 7.20C20.61 7.20 20.48 7.21 20.36 7.25C19.98 7.39 18.96 8.16 18.90 8.16ZM23.34 4.79C23.34 5.17 23.63 5.45 24.00 5.45C24.36 5.45 24.68 5.15 24.68 4.77C24.68 4.42 24.37 4.13 24.01 4.13C23.65 4.13 23.34 4.42 23.34 4.79ZM23.20 11.75L23.20 12.40C23.20 12.66 23.17 12.85 22.82 12.91C22.19 12.99 22.13 12.96 22.13 13.29C22.13 13.43 22.20 13.52 22.34 13.52C22.39 13.52 22.93 13.44 23.63 13.44C24.32 13.44 24.88 13.52 24.92 13.52C25.07 13.52 25.09 13.33 25.09 13.22C25.09 12.98 24.92 12.99 24.46 12.92C24.15 12.88 24.14 12.84 24.14 11.13L24.14 10.67C24.14 8.96 24.22 7.60 24.22 7.49C24.22 7.32 24.11 7.27 24.02 7.27L24.01 7.27C23.94 7.27 23.93 7.29 22.47 7.99C22.32 8.06 22.09 8.12 22.09 8.29C22.09 8.40 22.19 8.44 22.26 8.47C23.16 8.83 23.21 8.82 23.21 9.04C23.21 9.31 23.20 10.12 23.20 11.75ZM25.58 10.58C25.58 12.31 26.77 13.71 28.55 13.71C30.11 13.71 31.53 12.59 31.53 10.58C31.53 8.71 30.27 7.39 28.60 7.39C27.03 7.39 25.58 8.64 25.58 10.58ZM28.59 13.02C27.44 13.02 26.67 11.97 26.67 10.51C26.67 8.64 27.78 8.05 28.50 8.05C29.57 8.05 30.58 9.14 30.58 10.64C30.58 11.89 29.78 13.02 28.59 13.02ZM32.26 9.11C32.26 9.80 32.68 10.50 33.81 10.82C34.26 10.95 35.49 11.09 35.49 12.01C35.49 12.57 34.99 12.95 34.36 12.95C33.54 12.95 32.90 12.42 32.76 12.12C32.56 11.73 32.79 11.26 32.44 11.26C32.23 11.26 32.19 11.33 32.19 11.69C32.19 11.89 32.20 12.15 32.20 12.53C32.20 12.74 32.23 12.85 32.37 13.01C32.77 13.48 33.66 13.71 34.30 13.71C35.69 13.71 36.43 12.71 36.43 11.82C36.43 11.59 36.37 11.13 36.01 10.71C35.49 10.11 34.83 10.07 34.12 9.87C33.08 9.58 33.01 9.06 33.01 8.86C33.01 8.41 33.42 8.12 33.89 8.12C34.36 8.12 34.86 8.41 35.04 8.67C35.24 8.95 35.20 9.35 35.49 9.35C35.60 9.35 35.81 9.31 35.81 9.13C35.81 9.07 35.63 8.15 35.55 7.66C35.53 7.59 35.49 7.39 35.32 7.39C35.15 7.39 35.10 7.53 34.97 7.53C34.90 7.53 34.69 7.46 34.27 7.46C33.01 7.46 32.26 8.27 32.26 9.11ZM38.01 4.79C38.01 5.17 38.30 5.45 38.67 5.45C39.03 5.45 39.35 5.15 39.35 4.77C39.35 4.42 39.05 4.13 38.68 4.13C38.32 4.13 38.01 4.42 38.01 4.79ZM37.87 11.75L37.87 12.40C37.87 12.66 37.84 12.85 37.49 12.91C36.86 12.99 36.81 12.96 36.81 13.29C36.81 13.43 36.88 13.52 37.02 13.52C37.06 13.52 37.60 13.44 38.30 13.44C38.99 13.44 39.55 13.52 39.59 13.52C39.75 13.52 39.76 13.33 39.76 13.22C39.76 12.98 39.59 12.99 39.13 12.92C38.82 12.88 38.81 12.84 38.81 11.13L38.81 10.67C38.81 8.96 38.89 7.60 38.89 7.49C38.89 7.32 38.78 7.27 38.70 7.27L38.68 7.27C38.61 7.27 38.60 7.29 37.14 7.99C36.99 8.06 36.76 8.12 36.76 8.29C36.76 8.40 36.86 8.44 36.93 8.47C37.83 8.83 37.88 8.82 37.88 9.04C37.88 9.31 37.87 10.12 37.87 11.75ZM40.52 8.33L40.96 8.33C41.05 8.33 41.06 8.39 41.06 8.46C41.06 8.76 41.01 10.93 41.01 11.55C41.01 11.70 41.01 11.84 41.02 12.00C41.12 13.31 41.87 13.71 42.43 13.71C43.20 13.71 43.89 13.01 44.38 12.45C44.41 12.40 44.48 12.32 44.48 12.21C44.48 12.08 44.38 11.96 44.23 11.96C43.92 11.96 43.37 12.80 42.70 12.80C42.11 12.80 41.99 12.25 41.99 11.76C41.99 11.42 41.99 11.10 42 8.48C42 8.39 42.04 8.36 42.14 8.36L43.78 8.36C43.90 8.36 43.97 8.34 44.03 8.29C44.10 8.20 44.16 7.97 44.16 7.88C44.16 7.62 43.92 7.62 43.79 7.62C43.75 7.62 43.72 7.60 43.68 7.60L42.42 7.60C42.25 7.60 42.14 7.56 42.14 7.32C42.14 7.13 42.15 6.54 42.15 6.34C42.15 6.16 42.06 6.12 41.97 6.12C41.82 6.12 41.73 6.30 41.69 6.37C40.94 7.66 40.24 7.91 40.24 8.15C40.24 8.32 40.39 8.33 40.52 8.33ZM45.91 16.56C46.31 16.56 46.61 16.21 46.94 15.69C47.96 14.14 48.82 12.18 49.45 10.65C50.43 8.22 50.26 8.22 50.55 8.18C51.00 8.12 51.10 8.13 51.10 7.91C51.10 7.76 51.10 7.63 50.93 7.63C50.83 7.63 50.51 7.67 49.87 7.67L49.85 7.67C49.20 7.67 48.86 7.63 48.76 7.63C48.59 7.63 48.50 7.73 48.50 7.88C48.50 8.09 48.64 8.13 48.76 8.15C49.22 8.19 49.43 8.13 49.43 8.47C49.43 8.93 49.01 10.02 48.29 11.76C48.26 11.79 48.23 11.90 48.15 11.90C48.08 11.90 48.05 11.84 48.05 11.82C47.10 10.02 46.52 8.50 46.52 8.37C46.52 8.22 46.63 8.19 46.73 8.18C47.15 8.13 47.25 8.16 47.25 7.85C47.25 7.74 47.22 7.63 47.07 7.63C46.96 7.63 46.62 7.67 45.96 7.67C45.30 7.67 44.97 7.63 44.87 7.63C44.72 7.63 44.67 7.73 44.67 7.87C44.67 8.33 44.98 8.04 45.21 8.33C45.23 8.37 45.72 9.28 45.98 9.76C47.12 12.05 47.53 12.92 47.53 13.23C47.53 13.62 46.96 14.50 46.59 14.84C46.07 15.33 45.36 15.50 45.36 16.06C45.36 16.34 45.60 16.56 45.91 16.56Z"></path></g><!----><!----></svg>