<svg width="512" height="512" viewBox="0 0 512 512" xmlns="http://www.w3.org/2000/svg" fill="black">

  <!-- Globe -->
  <circle cx="170" cy="300" r="110" fill="black"/>

  <!-- Simplified continents cutout -->
  <path d="M120 270
           C140 240 180 240 200 260
           C210 275 210 295 190 300
           C170 305 165 320 150 320
           C135 320 120 300 120 270Z"
        fill="white"/>

  <!-- Person body -->
  <path d="M300 260
           C260 260 230 290 230 330
           L230 410
           L370 410
           L370 330
           C370 290 340 260 300 260Z"
        fill="black"/>

  <!-- Head -->
  <circle cx="300" cy="200" r="45" fill="black"/>

  <!-- Graduation cap -->
  <path d="M250 170
           L350 140
           L430 170
           L330 200
           Z"
        fill="black"/>

  <!-- Cap tassel -->
  <line x1="350" y1="150" x2="350" y2="190" stroke="black" stroke-width="6"/>
  <circle cx="350" cy="195" r="6" fill="black"/>

</svg>